<svg width="34" height="34" viewBox="0 0 34 34" fill="none" xmlns="http://www.w3.org/2000/svg">
<g clip-path="url(#clip0_8978_29704)">
<path d="M12.8824 33C12.8824 33 12.8366 33 12.8214 33C12.5011 32.9704 12.2418 32.7632 12.1503 32.4673L11.6166 30.6916C11.6166 30.6916 11.5403 30.5289 11.4488 30.4697C11.3573 30.4253 11.2506 30.4253 11.1286 30.4697L9.35949 31.1356C9.06973 31.2391 8.73422 31.1651 8.52071 30.9432C8.3072 30.7212 8.26145 30.3957 8.39871 30.1146L13.5534 19.9785C13.6449 19.8009 13.7974 19.6678 13.9957 19.6086C14.1787 19.5494 14.3922 19.5642 14.5752 19.653L16.9848 20.8072C17.366 20.9847 17.5185 21.4286 17.3355 21.7986C17.1525 22.1685 16.695 22.3165 16.3137 22.1389L14.5904 21.3103L10.6405 29.0788C11.1591 28.9012 11.6928 28.9456 12.1351 29.1527C12.5774 29.3747 12.9129 29.7594 13.0654 30.2329L15.963 24.536C16.146 24.1661 16.6035 24.0181 16.9848 24.1957C17.366 24.3733 17.5185 24.8172 17.3355 25.1871L13.5686 32.5857C13.4466 32.8372 13.1721 33 12.8824 33Z" fill="black"/>
<path d="M20.4008 33C20.1111 33 19.8518 32.8372 19.7145 32.5857L15.9629 25.2019C15.9172 25.0983 15.8867 24.9947 15.8867 24.8764C15.8867 24.4621 16.2222 24.1365 16.6492 24.1365C16.9847 24.1365 17.2745 24.3437 17.366 24.6248L20.2178 30.2477C20.3551 29.7742 20.6906 29.3895 21.1328 29.1675C21.5904 28.9456 22.1394 28.9012 22.6274 29.0788L18.6775 21.3103L16.9694 22.1389C16.5882 22.3165 16.1307 22.1685 15.9477 21.8134C15.7647 21.4434 15.9172 20.9995 16.2832 20.822L18.6775 19.6678C18.8605 19.579 19.074 19.5642 19.257 19.6234C19.4553 19.6826 19.6078 19.8158 19.6993 19.9933L24.854 30.1294C24.9912 30.4105 24.9455 30.736 24.732 30.958C24.5185 31.18 24.183 31.2539 23.8932 31.1504L22.1089 30.4845C22.0174 30.4549 21.8954 30.4549 21.8191 30.4845C21.7429 30.5289 21.6819 30.5881 21.6514 30.6916L21.1023 32.4821C21.0108 32.778 20.7516 32.9852 20.4313 33C20.4161 33 20.3856 33 20.3703 33H20.4008Z" fill="black"/>
<path d="M25.5251 18.3952C25.3116 18.6024 25.2201 18.8835 25.2658 19.1647L26.4859 26.1193C26.6231 26.8296 25.8453 27.3623 25.2048 27.0368L23.3748 26.1045L18.7691 23.7518C18.7691 23.7518 18.7081 23.7222 18.6623 23.7074L16.8323 22.7752C16.573 22.642 16.2527 22.642 15.9935 22.7752L10.2898 25.6902L11.4336 19.1647C11.4793 18.8835 11.3878 18.6024 11.1743 18.3952L5.97388 13.4826C5.44011 12.9795 5.72987 12.1064 6.4619 12.0029L13.6602 10.9819C13.9499 10.9523 14.2092 10.7747 14.3312 10.5084L17.549 4.18997C17.549 4.18997 17.5948 4.10119 17.6405 4.0568C18.0218 3.5537 18.8453 3.59809 19.1504 4.18997L22.2005 10.168L22.3682 10.5084C22.4902 10.7747 22.7495 10.9523 23.0392 10.9819L29.048 11.8401L30.2222 12.0029C30.9543 12.1064 31.2593 12.9795 30.7255 13.4826L25.5251 18.3952Z" fill="#FEE000"/>
<path d="M9.14598 26.9036C8.79522 26.9036 8.44446 26.8 8.1547 26.578C7.65143 26.2081 7.40742 25.6162 7.52942 25.0095L8.74947 18.0697L3.50328 13.0387C3.04576 12.6095 2.87801 11.9733 3.07627 11.3962C3.27452 10.8191 3.77779 10.39 4.40306 10.3012L11.6013 9.29499L14.9259 2.88783C15.2004 2.34033 15.7647 2 16.39 2H16.4052C17.0305 2 17.61 2.34033 17.8845 2.87303L21.1024 9.221L22.2919 9.44296L28.3769 10.3012C29.1852 10.4344 29.7647 11.0558 29.7952 11.8253C29.841 12.2248 29.6732 12.6835 29.3072 13.0387L24.1068 17.9661C24.1068 17.9661 24.1068 17.9661 24.0915 17.9661C24.061 17.9957 24.061 18.0401 24.0763 18.0549L25.2963 25.0095C25.4031 25.5718 25.1896 26.1341 24.732 26.5041C24.2745 26.874 23.6492 26.9776 23.1002 26.7852C23.1002 26.7852 22.9782 26.7408 22.9325 26.726L16.4662 23.4263L9.89326 26.7112C9.64925 26.8296 9.38999 26.8888 9.13073 26.8888L9.14598 26.9036ZM16.5272 3.5389H16.2985L13.0806 9.87208C12.8519 10.3308 12.3943 10.6711 11.8453 10.7451L4.63182 11.7513L4.57082 11.9733L9.77125 16.9007C10.1525 17.241 10.3355 17.7737 10.244 18.3064L9.02398 25.2759L9.55775 26.0749L9.20698 25.4239L15.6427 22.1389C16.1307 21.8874 16.7103 21.8874 17.1983 22.1389L23.6035 25.4091C23.6035 25.4091 23.634 25.4091 23.6492 25.4239L23.817 25.2759L22.597 18.3212C22.5055 17.7885 22.6885 17.2706 23.085 16.9007L28.2854 11.9733C28.3159 11.8105 28.2549 11.7661 28.1787 11.7513L21.0262 10.7451C20.4619 10.6563 20.0044 10.3308 19.7756 9.85728L16.5577 3.5389H16.5272Z" fill="black"/>
</g>
<defs>
<clipPath id="clip0_8978_29704">
<rect width="28" height="31" fill="white" transform="translate(3 2)"/>
</clipPath>
</defs>
</svg>
