<svg width="34" height="34" viewBox="0 0 34 34" fill="none" xmlns="http://www.w3.org/2000/svg">
<g clip-path="url(#clip0_8978_29715)">
<path d="M24.4676 12.3747C25.9102 13.8481 25.9102 16.4304 24.4676 17.9038L18.3701 24.1316L12.2725 17.9038C10.8299 16.4304 10.9191 13.924 12.3617 12.4506C13.8787 10.9013 16.2582 10.9013 17.7008 12.3595L18.3849 13.0582L19.0542 12.3747C20.4968 10.9013 22.9507 10.8101 24.4676 12.3747Z" fill="#FEE000"/>
<path d="M17.5074 27.5342C16.3325 27.5342 15.3956 26.8051 14.5628 26.1519C14.1017 25.7873 13.6704 25.4532 13.254 25.2861C12.8079 25.1038 12.2427 25.0127 11.6478 24.9215C10.6217 24.7696 9.4765 24.6025 8.67341 23.7975C7.88519 22.9924 7.72159 21.8076 7.57287 20.7595C7.48364 20.1519 7.40928 19.5747 7.21594 19.119C7.03748 18.6937 6.71029 18.2532 6.35336 17.7823C5.71386 16.9316 5 15.9595 5 14.7747C5 13.5899 5.71386 12.6177 6.35336 11.7671C6.71029 11.2962 7.03748 10.8557 7.21594 10.4304C7.39441 9.97468 7.48364 9.39747 7.57287 8.78987C7.72159 7.74177 7.88519 6.57215 8.67341 5.7519C9.46163 4.93165 10.6217 4.77975 11.6478 4.62785C12.2427 4.53671 12.8079 4.46076 13.254 4.26329C13.6704 4.08101 14.1017 3.74684 14.5628 3.38228C15.3956 2.72911 16.3474 2 17.5074 2C18.6675 2 19.6193 2.72911 20.4521 3.38228C20.9131 3.74684 21.3444 4.08101 21.7609 4.26329C22.207 4.44557 22.7722 4.53671 23.367 4.62785C24.3932 4.77975 25.5384 4.94684 26.3415 5.7519C27.1446 6.55696 27.3082 7.74177 27.442 8.78987C27.5312 9.39747 27.6056 9.97468 27.7989 10.4304C27.9774 10.8557 28.3046 11.2962 28.6466 11.7671C29.2861 12.6177 30 13.5899 30 14.7747C30 15.9595 29.2861 16.9316 28.6466 17.7823C28.2897 18.2532 27.9625 18.6937 27.7989 19.119C27.6205 19.5747 27.5312 20.1519 27.442 20.7595C27.2933 21.7924 27.1297 22.9772 26.3415 23.7975C25.5532 24.6177 24.3932 24.7848 23.367 24.9215C22.7722 25.0127 22.207 25.0886 21.7609 25.2861C21.3444 25.4684 20.9131 25.8025 20.4521 26.1519C19.6193 26.8051 18.6675 27.5342 17.5074 27.5342ZM17.5074 3.51899C16.8382 3.51899 16.1689 4.03544 15.4551 4.59747C14.9346 4.9924 14.3992 5.41772 13.8043 5.66076C13.1797 5.91899 12.4955 6.02532 11.8412 6.11646C10.9786 6.23797 10.1606 6.35949 9.71446 6.81519C9.26829 7.27089 9.14932 8.10633 9.03034 8.98734C8.94111 9.6557 8.837 10.3544 8.58418 10.9924C8.33135 11.6 7.9298 12.1468 7.54313 12.6785C7.00773 13.4076 6.48721 14.0911 6.48721 14.7747C6.48721 15.4582 6.99286 16.1418 7.54313 16.8709C7.9298 17.4025 8.34622 17.9494 8.58418 18.557C8.837 19.1949 8.94111 19.8937 9.03034 20.562C9.14932 21.443 9.26829 22.2785 9.71446 22.7342C10.1606 23.1899 10.9786 23.3114 11.8412 23.4329C12.5104 23.524 13.1945 23.6304 13.8043 23.8886C14.3992 24.1468 14.9346 24.557 15.4402 24.9519C16.1541 25.4987 16.8233 26.0152 17.4926 26.0152C18.1618 26.0152 18.8311 25.4987 19.5449 24.9519C20.0654 24.557 20.6008 24.1316 21.1808 23.8886C21.8055 23.6304 22.4896 23.524 23.144 23.4329C24.0065 23.3114 24.8245 23.1899 25.2707 22.7342C25.7168 22.2785 25.8358 21.443 25.9548 20.562C26.044 19.8937 26.1481 19.1797 26.401 18.557C26.6538 17.9494 27.0553 17.4025 27.442 16.8861C27.9774 16.157 28.483 15.4734 28.483 14.7899C28.483 14.1063 27.9774 13.4228 27.442 12.6937C27.0553 12.162 26.6389 11.6152 26.401 11.0228C26.1481 10.3848 26.044 9.68608 25.9548 9.01772C25.8358 8.13671 25.7168 7.30127 25.2707 6.84557C24.8245 6.38987 24.0065 6.26835 23.144 6.14684C22.4896 6.0557 21.8055 5.94937 21.1808 5.69114C20.586 5.43291 20.0506 5.02278 19.53 4.62785C18.8162 4.08101 18.1469 3.54937 17.4777 3.54937L17.5074 3.51899Z" fill="black"/>
<path d="M17.4777 23.357C17.2843 23.357 17.091 23.281 16.9571 23.1291L10.8596 16.9013C9.14927 15.1544 9.19389 12.1772 10.9488 10.3848C12.7335 8.56202 15.6038 8.51645 17.3289 10.2937L17.4777 10.4456L17.6264 10.2937C19.411 8.47088 22.3111 8.47088 24.0957 10.2937C25.8209 12.0557 25.8209 15.1392 24.0957 16.9013L17.9982 23.1291C17.8643 23.2658 17.671 23.357 17.4777 23.357ZM14.2058 10.5063H14.176C13.3581 10.5063 12.5847 10.8557 11.9898 11.4633C11.4396 12.0253 11.0975 12.8304 11.0826 13.6658C11.0678 14.5013 11.3503 15.2759 11.9006 15.838L17.4628 21.5342L23.0398 15.838C24.185 14.6683 24.185 12.5418 23.0398 11.3721C22.4598 10.7797 21.7013 10.4759 20.8387 10.4608C20.0208 10.4608 19.2326 10.8101 18.6823 11.3721L17.9982 12.0557C17.7007 12.3595 17.2397 12.3595 16.9423 12.0557L16.2581 11.357C15.7079 10.7949 14.9791 10.4911 14.1909 10.4911L14.2058 10.5063Z" fill="black"/>
<path d="M23.6348 32H11.3653C11.1571 32 10.9489 31.9089 10.8151 31.7418C10.6663 31.5747 10.6068 31.362 10.6366 31.1494L11.1125 26.6835C11.1571 26.3038 11.4694 26 11.8561 26H23.1886C23.5753 26 23.8876 26.2886 23.9322 26.6835L24.3784 31.1494C24.3933 31.362 24.3338 31.5747 24.1851 31.7418C24.0363 31.9089 23.843 32 23.6348 32ZM12.1982 30.481H22.802L22.5045 27.5342H12.5105L12.1982 30.481Z" fill="black"/>
</g>
<defs>
<clipPath id="clip0_8978_29715">
<rect width="25" height="30" fill="white" transform="translate(5 2)"/>
</clipPath>
</defs>
</svg>
