<svg width="34" height="34" viewBox="0 0 34 34" fill="none" xmlns="http://www.w3.org/2000/svg">
<g clip-path="url(#clip0_8977_29677)">
<path d="M17.0466 25.8478C22.8698 25.8478 27.5904 21.0653 27.5904 15.1657C27.5904 9.26616 22.8698 4.48363 17.0466 4.48363C11.2234 4.48363 6.50281 9.26616 6.50281 15.1657C6.50281 21.0653 11.2234 25.8478 17.0466 25.8478Z" fill="#FEE000"/>
<path d="M26.6851 31C25.9529 31 25.2074 30.6898 24.6882 30.0828L19.829 24.2563C19.6027 23.9865 19.6426 23.5954 19.8956 23.3796C20.1485 23.1638 20.5479 23.1907 20.7609 23.447L25.6201 29.2736C26.1127 29.8536 26.9913 29.921 27.5638 29.422L28.2694 28.815C28.5489 28.5857 28.722 28.2486 28.7486 27.8709C28.7752 27.4933 28.6687 27.1291 28.4291 26.8459L23.49 20.9249C23.2637 20.6551 23.3037 20.264 23.5566 20.0482C23.8229 19.8324 24.2089 19.8593 24.4219 20.1156L29.361 26.0366C29.8136 26.5761 30.0267 27.264 29.9601 27.9653C29.9068 28.6801 29.574 29.3141 29.0415 29.7591L28.3359 30.3526C27.8433 30.7707 27.2443 30.973 26.6585 30.973L26.6851 31Z" fill="black"/>
<path d="M15.3026 25.9017C9.0722 25.9017 4 20.763 4 14.4509C4 8.13873 9.0722 3 15.3026 3C21.533 3 26.6052 8.13873 26.6052 14.4509C26.6052 20.763 21.533 25.9017 15.3026 25.9017ZM15.3026 4.53757C9.89759 4.52408 5.50435 8.97495 5.50435 14.4509C5.50435 19.9268 9.89759 24.3776 15.3026 24.3776C20.7076 24.3776 25.1009 19.9268 25.1009 14.4509C25.1009 8.97495 20.6943 4.52408 15.3026 4.52408V4.53757Z" fill="black"/>
<path d="M11.362 21.2081C11.1224 21.2081 10.8961 21.1272 10.6831 20.9788C10.3236 20.7225 10.1506 20.2775 10.2304 19.8459L10.8828 16.0154L8.12701 13.3044C7.8075 12.9942 7.701 12.5356 7.83413 12.1175C7.96726 11.6859 8.32671 11.3892 8.76603 11.3218L12.5735 10.7688L14.2776 7.27553C14.6636 6.47977 15.955 6.47977 16.341 7.27553L18.0451 10.7688L21.8526 11.3218C22.2919 11.3892 22.638 11.6859 22.7845 12.1175C22.9176 12.5356 22.8111 12.9942 22.4916 13.3044L19.7358 16.0154L20.3882 19.8459C20.468 20.2909 20.2816 20.7225 19.9355 20.9923C19.5761 21.262 19.1101 21.289 18.724 21.0732L15.3293 19.2659L11.9345 21.0732C11.7614 21.1676 11.5884 21.2081 11.402 21.2081H11.362ZM15.3026 17.8902C15.489 17.8902 15.6754 17.9306 15.8352 18.0251L18.9903 19.711L18.3912 16.1503C18.3247 15.7726 18.4445 15.395 18.724 15.1252L21.2801 12.6031L17.7522 12.0906C17.3794 12.0366 17.0599 11.7938 16.8869 11.4566L15.3026 8.21965L13.7184 11.4566C13.5453 11.7938 13.2258 12.0366 12.8531 12.0906L9.32517 12.6166L11.8812 15.1387C12.1475 15.4085 12.2673 15.7861 12.2141 16.1638L11.615 19.7245L14.7701 18.0385C14.9299 17.9441 15.1163 17.9037 15.3026 17.9037V17.8902Z" fill="black"/>
</g>
<defs>
<clipPath id="clip0_8977_29677">
<rect width="26" height="28" fill="white" transform="translate(4 3)"/>
</clipPath>
</defs>
</svg>
